<?xml version="1.0" encoding="UTF-8"?><!DOCTYPE svg PUBLIC "-//W3C//DTD SVG 1.1//EN" "http://www.w3.org/Graphics/SVG/1.1/DTD/svg11.dtd"><svg xmlns="http://www.w3.org/2000/svg"><symbol id="icon_economy" viewBox="0 0 80 80"><title>icon_economy</title><desc>Created with Sketch.</desc><g transform="translate(1 1)" fill="none" fill-rule="evenodd"><path fill="#303338" d="M26 32h33v20H26z"/><path fill="#fff" d="M28 34h29v16H28z"/><path fill="#303338" d="M23 29h33v20H23z"/><path fill="#fff" d="M25 31h29v16H25z"/><path fill="#303338" d="M20 26h33v20H20z"/><path fill="#fff" d="M22 28h29v16H22z"/><path d="M37.03 32.36c-.64 0-1.167.192-1.574.575-.408.382-.68.96-.817 1.736h3.11v1.06h-3.22l-.017.31v.377l.014.267h2.79v1.046h-2.67c.29 1.42 1.12 2.132 2.49 2.132.65 0 1.317-.142 2-.424v1.388c-.596.278-1.29.417-2.084.417-1.1 0-1.992-.3-2.678-.903-.69-.6-1.14-1.47-1.35-2.61H32v-1.05h.93l-.014-.254v-.252l.014-.443H32v-1.06h1.025c.174-1.14.61-2.04 1.306-2.69.7-.65 1.6-.98 2.7-.98.92 0 1.73.2 2.45.61l-.57 1.277c-.7-.345-1.323-.52-1.87-.52z" fill="#000"/><path d="M27 43h1v-2h-5v2h4zm22-12h1v-2h-5v2h4zm-22 0h1v-2h-5v2h4zm22 12h1v-2h-5v2h4z" fill="#303338"/><circle stroke="#DADADA" stroke-width="2" cx="39" cy="39" r="39"/></g></symbol><symbol id="icon_energy" viewBox="0 0 80 80"><title>icon_energy</title><desc>Created with Sketch.</desc><g transform="translate(1 1)" fill="none" fill-rule="evenodd"><path d="M33 45.5v2c0 .567.186 1.087.5 1.504-.314.417-.5.935-.5 1.496 0 .567.186 1.087.5 1.504-.314.417-.5.935-.5 1.496 0 1.39 1.12 2.5 2.5 2.5h.5c0 1.657 1.343 3 3 3s3-1.343 3-3h.5c1.37 0 2.5-1.12 2.5-2.5 0-.567-.186-1.087-.5-1.504.314-.417.5-.935.5-1.496 0-.567-.186-1.087-.5-1.504.314-.417.5-.935.5-1.496v-3.964c4.16-2.168 7-6.52 7-11.536 0-7.18-5.82-13-13-13s-13 5.82-13 13c0 5.015 2.84 9.368 7 11.536V45.5zm2 5c0-.276.23-.5.5-.5h7c.276 0 .5.232.5.5 0 .276-.23.5-.5.5h-7c-.276 0-.5-.232-.5-.5zm0 3c0-.276.23-.5.5-.5h7c.276 0 .5.232.5.5 0 .276-.23.5-.5.5h-7c-.276 0-.5-.232-.5-.5zm0-6.5h8v.5c0 .276-.23.5-.5.5h-7c-.276 0-.5-.232-.5-.5V47zm15-15c0-6.075-4.925-11-11-11s-11 4.925-11 11c0 4.664 2.903 8.65 7 10.25V45h8v-2.75c4.097-1.6 7-5.586 7-10.25z" fill="#303338"/><path d="M35 31l2 2 2-2 2 2 2-2" stroke="#303338"/><path d="M43 31l-2 14M35 31l2 14" stroke="#303338" stroke-linecap="square"/><circle stroke="#DADADA" stroke-width="2" cx="39" cy="39" r="39"/></g></symbol><symbol id="icon_environment" viewBox="0 0 80 80"><title>icon_environment</title><desc>Created with Sketch.</desc><g transform="translate(1 1)" fill="none" fill-rule="evenodd"><path d="M37.4 53.28s-2.944 3.073-6.01 1.644c-3.065-1.43-4.097-6.356-4.83-7.81 0 0 5.407-.997 8.472.432 3.066 1.43 2.37 5.735 2.37 5.735zm7.653-15.064s-3.108-5.168.092-9.122c3.2-3.953 10.46-3.913 12.772-4.518 0 0-.75 8.06-3.95 12.012-3.2 3.954-8.914 1.628-8.914 1.628zm-10.24-.134s2.88-7.104-1.248-12.79C29.44 19.61 19.87 17.498 19.87 17.498s-.72 9.58 3.407 15.264c4.126 5.685 11.535 5.322 11.535 5.322z" stroke="#303338" stroke-width="2"/><path d="M39.48 45.053c.215-.48.433-.948.654-1.405 2.012-4.17 4.183-7.216 6.373-9.313 1.354-1.296 2.443-1.992 3.122-2.263.51-.206 1.09.044 1.295.557.206.51-.044 1.09-.557 1.295-.08.033-.29.14-.603.34-.558.357-1.19.853-1.878 1.512-2.014 1.926-4.046 4.777-5.956 8.736-2.444 5.067-4.496 11.565-6.016 19.667-.1.544-.624.9-1.167.8-.54-.102-.9-.625-.796-1.167.87-4.647 1.92-8.788 3.116-12.452-.08-.2-.095-.43-.028-.65 1.566-5.22-.217-9.99-4.38-14.69-.74-.835-1.52-1.63-2.433-2.5-.345-.324-1.66-1.545-1.928-1.805-.396-.385-.405-1.018-.02-1.414.385-.395 1.018-.404 1.414-.02.248.24 1.553 1.45 1.91 1.794.95.904 1.77 1.737 2.555 2.623 2.94 3.316 4.826 6.737 5.32 10.353z" fill="#303338"/><circle stroke="#DADADA" stroke-width="2" cx="39" cy="39" r="39"/></g></symbol><symbol id="icon_health" viewBox="0 0 80 80"><title>icon_health</title><desc>Created with Sketch.</desc><g transform="translate(1 1)" stroke-width="2" fill="none" fill-rule="evenodd"><path d="M47 31V19H31v12H19v16h12v12h16V47h12V31H47z" stroke="#303338"/><circle stroke="#DADADA" cx="39" cy="39" r="39"/></g></symbol><symbol id="icon_markets" viewBox="0 0 80 80"><title>icon_markets</title><desc>Created with Sketch.</desc><g transform="translate(1 1)" fill="none" fill-rule="evenodd"><path d="M23 32h5v20h-5V32zm2 2h1v16h-1V34zm7-2h5v20h-5V32zm2 2h1v16h-1V34zm7-2h5v20h-5V32zm2 2h1v16h-1V34zm7-2h5v20h-5V32zm2 2h1v16h-1V34zm-33-3v-4l20-7 20 7v4H19zm2-2v-1l18-6 18 6v1H21zm0 24h36v5H21v-5zm2 2h32v1H23v-1z" fill="#303338"/><circle stroke="#DADADA" stroke-width="2" cx="39" cy="39" r="39"/></g></symbol><symbol id="icon_realestate" viewBox="0 0 80 80"><title>icon_realestate</title><desc>Created with Sketch.</desc><g transform="translate(1 1)" fill="none" fill-rule="evenodd"><path d="M60 59v-2h-2V17H38v14H20v26h-2v2h42zM40 19h16v38H40V19zM22 33h16v24H22V33zm2 3h5v5h-5v-5zm2 2h1v1h-1v-1zm5-2h5v5h-5v-5zm2 2h1v1h-1v-1zm-9 5h5v5h-5v-5zm2 2h1v1h-1v-1zm5-2h5v5h-5v-5zm2 2h1v1h-1v-1zm-9 5h5v5h-5v-5zm2 2h1v1h-1v-1zm5-2h5v5h-5v-5zm2 2h1v1h-1v-1zm9-16h5v5h-5v-5zm2 2h1v1h-1v-1zm5-2h5v5h-5v-5zm2 2h1v1h-1v-1zm-9-9h5v5h-5v-5zm2 2h1v1h-1v-1zm5-2h5v5h-5v-5zm2 2h1v1h-1v-1zm-9-9h5v5h-5v-5zm2 2h1v1h-1v-1zm5-2h5v5h-5v-5zm2 2h1v1h-1v-1zm-9 19h5v5h-5v-5zm2 2h1v1h-1v-1zm5-2h5v5h-5v-5zm2 2h1v1h-1v-1zm-9 5h5v5h-5v-5zm2 2h1v1h-1v-1zm5-2h5v5h-5v-5zm2 2h1v1h-1v-1z" fill="#303338"/><circle stroke="#DADADA" stroke-width="2" cx="39" cy="39" r="39"/></g></symbol><symbol id="icon_small_email" viewBox="0 0 12 10"><title>icon_small_email</title><desc>Created with Sketch.</desc><path d="M12 3.225v5.64c0 .31-.106.58-.315.8-.21.224-.462.335-.757.335H1.07c-.293 0-.545-.11-.755-.334C.105 9.444 0 9.176 0 8.864v-5.64c.197.233.422.44.676.62 1.616 1.163 2.725 1.98 3.328 2.45.255.198.46.353.62.464.158.11.37.225.632.34.264.117.51.175.737.175h.013c.228 0 .474-.058.737-.174.263-.12.474-.23.633-.347.16-.11.365-.266.62-.465.758-.583 1.87-1.4 3.334-2.45.254-.185.478-.39.67-.618zm0-2.088c0 .374-.11.73-.33 1.072-.218.34-.49.63-.816.87L7.72 5.39l-.284.217c-.146.112-.266.202-.362.27-.096.07-.212.146-.348.23-.136.087-.264.15-.385.193-.12.043-.23.064-.33.064H6c-.102 0-.214-.02-.335-.064-.12-.043-.25-.106-.384-.192-.137-.085-.253-.162-.35-.23-.095-.07-.216-.16-.36-.27-.146-.112-.24-.184-.286-.217L2.526 4.1c-.763-.56-1.22-.898-1.373-1.012-.276-.2-.538-.472-.783-.82-.25-.35-.37-.675-.37-.97C0 .92.093.614.28.37.463.122.727 0 1.07 0h9.857c.29 0 .54.11.752.334.21.222.313.49.313.802z" fill="#fff" opacity=".75" fill-rule="evenodd"/></symbol><symbol id="icon_small_fax" viewBox="0 0 12 12"><title>icon_small_fax</title><desc>Created with Sketch.</desc><path d="M1.002 2C.456 2 0 2.45 0 3.003v4.994C0 8.562.45 9 1.002 9H2v3h8V9h.998C11.544 9 12 8.55 12 7.997V3.003C12 2.438 11.55 2 10.998 2H10V0H2v2h-.998zM3 1h6v1H3V1zm0 8h6v2H3V9zm0-5h3v1H3V4z" fill="#E3E6C5" fill-rule="evenodd"/></symbol><symbol id="icon_small_phone" viewBox="0 0 12 11"><title>icon_small_phone</title><desc>Created with Sketch.</desc><path d="M12.052 9.515L9 6.662c-.005.003-.938.75-.982.782-1.065.844-5.036-2.904-4.012-3.784l.988-.792L1.954 0C1.95 0 .97.79.954.802.277 1.37-1.6 2.78 3.484 7.577c5.127 4.84 6.813 3.306 7.565 2.738l1-.8z" fill="#fff" opacity=".75" fill-rule="evenodd"/></symbol><symbol id="logo" viewBox="0 0 160 49"><title>logo</title><desc>Created with Sketch.</desc><g fill="none" fill-rule="evenodd"><g><path d="M158.732 46.583v.097c0 .528-.37.733-.79.733-.47 0-.885-.28-.885-.768V45.35c0-.58.476-.785.857-.785.364 0 .818.154.818.682v.058h.705v-.126c0-.904-.76-1.284-1.523-1.284-.875 0-1.596.533-1.596 1.493v1.295c0 .904.756 1.398 1.624 1.398.762 0 1.495-.432 1.495-1.335v-.846H157.7v.68h1.032zm-5.196 1.432h.727v-4.052h-.716v2.762h-.01l-1.738-2.762h-.723v4.052h.716v-2.768h.01l1.733 2.768zm-5.36 0h.746v-4.05h-.745v4.05zm-3.072.016l1.322-4.067h-.74l-.9 2.983h-.013l-.902-2.983h-.805l1.31 4.068h.73zm-4.535-.015h.743v-4.05h-.744v4.05zm-4.587 0h2.69v-.665h-1.945v-3.387h-.745v4.052zm-3.7 0l-.992-1.603c.538-.193.79-.693.79-1.176 0-.83-.604-1.273-1.355-1.273h-1.58v4.052h.745v-1.518h.644l.936 1.518h.812zm-1.648-2.153h-.745V44.6h.734c.415 0 .73.153.73.63 0 .422-.288.632-.72.632zm-6.338 2.153h2.794v-.665h-2.05v-1.068h1.8v-.665h-1.8v-.99h2.028v-.664h-2.77v4.052zm-3.052-3.405h1.148v-.647h-3.035v.647h1.148v3.405h.74V44.61zm-4.754 0h1.15v-.647h-3.036v.647h1.148v3.405h.74V44.61zm-6.482 3.405h2.794v-.665h-2.05v-1.068h1.798v-.665h-1.798v-.99h2.028v-.664h-2.772v4.052zm-2.676-2.142v-.006c.408-.193.565-.494.565-.858 0-.7-.46-1.047-1.23-1.047h-1.716v4.052h1.81c.66 0 1.26-.403 1.26-1.165 0-.455-.23-.852-.688-.977zm-.162-.767c0 .33-.22.522-.595.522h-.88v-1.023h.847c.375 0 .628.148.628.5zm.112 1.698c0 .37-.252.57-.65.57h-.936v-1.11h.94c.416 0 .646.17.646.54zm-6.007 1.21l-.99-1.602c.536-.193.788-.693.788-1.176 0-.83-.604-1.273-1.355-1.273h-1.58v4.052h.745v-1.518h.644l.936 1.518h.812zm-1.646-2.152h-.747V44.6h.734c.415 0 .728.153.728.63 0 .422-.286.632-.716.632zm-3.545.727v-1.217c0-.904-.756-1.477-1.625-1.477-.79 0-1.596.533-1.596 1.493v1.296c0 .903.755 1.397 1.625 1.397.788 0 1.595-.534 1.595-1.494zm-.745.04c0 .578-.47.783-.85.783-.472 0-.882-.278-.882-.767V45.35c0-.58.47-.785.852-.785.47 0 .88.28.88.768v1.296zm-6.205-2.002h1.932v-.665h-2.683v4.052h.75V46.31h1.658v-.658h-1.657v-1.024zm-5.653 3.403l1.036-4.067h-.75l-.64 2.852h-.01l-.73-2.852h-.632l-.734 2.836h-.01l-.63-2.837h-.76l1.03 4.068h.695l.717-2.856h.012l.716 2.857h.69zm-5.88-.015h.79l-1.473-4.052h-.685l-1.484 4.052h.735l.302-.864h1.523l.292.865zm-.504-1.51h-1.104l.55-1.623h.01l.544 1.622zm-6.658 1.51h2.688v-.665h-1.944v-3.387h-.744v4.052z" fill="#7F8184"/><path d="M17.564 14.292H0v6.944h14.935l2.63-6.944z" fill="#AAB72B"/><path d="M28.176 21.438c1.603 8.567 9.018 15.047 17.93 15.047 8.913 0 16.328-6.48 17.93-15.047h-7.044c-1.454 4.695-5.777 8.102-10.886 8.102-5.108 0-9.43-3.407-10.885-8.102h-7.044z" fill="#303338"/><path d="M64.037 15.047C62.434 6.48 55.02 0 46.107 0c-8.913 0-16.328 6.48-17.93 15.047h7.044c1.454-4.696 5.777-8.102 10.886-8.102 5.11 0 9.432 3.406 10.886 8.102h7.045z" fill="#AAB72B"/><path d="M70.44 1.02v20.835c0 8.31 6.64 15.048 14.833 15.048 8.192 0 14.833-6.737 14.833-15.048V9.085L93.26 7.222v14.632c0 4.475-3.576 8.102-7.987 8.102-4.412 0-7.987-3.627-7.987-8.102V2.882l-6.846-1.86z" fill="#303338"/><path d="M121.655 9.046L118.232 0l-13.578 35.88h6.847l2.628-6.943h15.053l-2.626-6.945h-9.797l4.898-12.946z" fill="#303338"/><path d="M46.29 43.696V36.75l18.255 4.963v6.945L46.29 43.696z" fill="#303338"/><path d="M159.54 28.527h-14.833V4.923l-6.845-1.86v32.41h21.678v-6.946z" fill="#303338"/><path d="M20.19 7.967l2.63-6.946H0v6.947h20.19z" fill="#303338"/><path d="M0 35.528h22.82v-6.945H0v6.945z" fill="#303338"/></g></g></symbol><symbol id="logo_footer" viewBox="0 0 100 31"><title>logo_footer</title><desc>Created with Sketch.</desc><g fill="none" fill-rule="evenodd"><g><path d="M99.208 29.47v.062c0 .335-.232.464-.494.464-.295 0-.554-.177-.554-.486v-.82c0-.366.298-.495.536-.495.228 0 .512.096.512.43v.037h.44v-.08c0-.57-.476-.81-.952-.81-.546 0-.997.336-.997.944v.82c0 .57.47.884 1.014.884.476 0 .934-.273.934-.845v-.535h-1.085v.43h.645zm-3.248.907h.454v-2.564h-.447v1.747h-.007l-1.086-1.747h-.45v2.564h.446v-1.75h.007l1.083 1.75zm-3.35 0h.466v-2.563h-.465v2.563zm-1.92.01l.826-2.574h-.462L90.49 29.7h-.007l-.564-1.887h-.504l.82 2.574h.454zm-2.835-.01h.466v-2.563h-.465v2.563zm-2.866 0h1.68v-.42h-1.215v-2.144h-.466v2.564zm-2.314 0l-.62-1.014c.336-.122.494-.44.494-.744 0-.526-.378-.807-.847-.807h-.987v2.564h.465v-.96h.404l.585.96h.506zm-1.03-1.362h-.465v-.8h.46c.26 0 .456.098.456.4 0 .267-.18.4-.45.4zm-3.96 1.362h1.746v-.42H78.15v-.677h1.124v-.42H78.15v-.626h1.268v-.42h-1.732v2.563zm-1.908-2.154h.718v-.41H74.6v.41h.716v2.154h.462v-2.154zm-2.97 0h.717v-.41h-1.897v.41h.717v2.154h.462v-2.154zm-4.053 2.154H70.5v-.42h-1.28v-.677h1.124v-.42H69.22v-.626h1.267v-.42h-1.732v2.563zm-1.673-1.355v-.004c.256-.122.354-.313.354-.543 0-.442-.287-.662-.77-.662h-1.072v2.564h1.13c.414 0 .79-.255.79-.737 0-.288-.145-.54-.432-.618zm-.1-.486c0 .21-.137.33-.373.33h-.55v-.646h.53c.233 0 .39.093.39.316zm.07 1.075c0 .235-.158.36-.407.36h-.585v-.7h.588c.26 0 .403.107.403.34zm-3.755.767l-.62-1.014c.336-.122.493-.44.493-.744 0-.526-.377-.807-.846-.807h-.988v2.564h.466v-.96h.402l.585.96h.507zm-1.03-1.362h-.465v-.8h.458c.26 0 .456.098.456.4 0 .267-.18.4-.448.4zm-2.214.46v-.77c0-.572-.472-.934-1.015-.934-.495 0-.998.338-.998.946v.82c0 .57.472.884 1.015.884.494 0 .998-.338.998-.945zm-.466.025c0 .367-.294.496-.532.496-.294 0-.55-.176-.55-.485v-.82c0-.366.294-.495.533-.495.293 0 .55.176.55.485v.82zm-3.878-1.266h1.207v-.42H55.24v2.563h.47v-1.08h1.035v-.415H55.71v-.648zm-3.534 2.153l.648-2.574h-.47l-.4 1.805h-.006l-.455-1.805h-.396l-.458 1.795h-.008l-.392-1.795h-.476l.644 2.574h.434l.448-1.808h.007l.448 1.807h.43zm-3.675-.01h.495l-.92-2.564h-.428l-.928 2.564h.458l.19-.547h.95l.183.547zm-.314-.956h-.69l.344-1.025h.007l.34 1.026zm-4.16.957h1.68v-.42H44.49v-2.144h-.465v2.564z" fill="#fff"/><path d="M10.977 9.042H0v4.393h9.335l1.642-4.393z" fill="#fff"/><path d="M17.61 13.563c1.002 5.42 5.637 9.52 11.206 9.52 5.57 0 10.205-4.1 11.207-9.52H35.62c-.91 2.97-3.61 5.125-6.804 5.125-3.192 0-5.894-2.155-6.803-5.125H17.61z" fill="#303338"/><path d="M40.023 9.52C39.02 4.1 34.387 0 28.816 0c-5.57 0-10.204 4.1-11.206 9.52h4.403c.908-2.97 3.61-5.126 6.803-5.126S34.71 6.55 35.62 9.52h4.403z" fill="#fff"/><path d="M44.025.646v13.18c0 5.258 4.15 9.52 9.27 9.52 5.12 0 9.27-4.262 9.27-9.52v-8.08L58.288 4.57v9.257c0 2.83-2.235 5.126-4.99 5.126-2.76 0-4.993-2.295-4.993-5.126V1.823L44.024.646z" fill="#303338"/><path d="M76.035 5.723L73.895 0 65.41 22.7h4.278l1.642-4.393h9.408l-1.642-4.394h-6.123l3.062-8.19z" fill="#303338"/><path d="M28.93 27.644V23.25l11.41 3.14v4.394l-11.41-3.14z" fill="#303338"/><path d="M99.713 18.048h-9.27V3.115l-4.28-1.178v20.504h13.55V18.05z" fill="#303338"/><path d="M12.62 5.04L14.26.646H0V5.04h12.62z" fill="#303338"/><path d="M0 22.477h14.262v-4.394H0v4.394z" fill="#303338"/></g></g></symbol></svg>