<?xml version="1.0" encoding="UTF-8"?><!DOCTYPE svg PUBLIC "-//W3C//DTD SVG 1.1//EN" "http://www.w3.org/Graphics/SVG/1.1/DTD/svg11.dtd"><svg xmlns="http://www.w3.org/2000/svg"><symbol id="icon_economy" viewBox="0 0 80 80"><title>icon_economy</title><desc>Created with Sketch.</desc><g transform="translate(1 1)" fill="none" fill-rule="evenodd"><path fill="#303338" d="M26 32h33v20H26z"/><path fill="#fff" d="M28 34h29v16H28z"/><path fill="#303338" d="M23 29h33v20H23z"/><path fill="#fff" d="M25 31h29v16H25z"/><path fill="#303338" d="M20 26h33v20H20z"/><path fill="#fff" d="M22 28h29v16H22z"/><path d="M37.03 32.36c-.64 0-1.167.192-1.574.575-.408.382-.68.96-.817 1.736h3.11v1.06h-3.22l-.017.31v.377l.014.267h2.79v1.046h-2.67c.29 1.42 1.12 2.132 2.49 2.132.65 0 1.317-.142 2-.424v1.388c-.596.278-1.29.417-2.084.417-1.1 0-1.992-.3-2.678-.903-.69-.6-1.14-1.47-1.35-2.61H32v-1.05h.93l-.014-.254v-.252l.014-.443H32v-1.06h1.025c.174-1.14.61-2.04 1.306-2.69.7-.65 1.6-.98 2.7-.98.92 0 1.73.2 2.45.61l-.57 1.277c-.7-.345-1.323-.52-1.87-.52z" fill="#000"/><path d="M27 43h1v-2h-5v2h4zm22-12h1v-2h-5v2h4zm-22 0h1v-2h-5v2h4zm22 12h1v-2h-5v2h4z" fill="#303338"/><circle stroke="#DADADA" stroke-width="2" cx="39" cy="39" r="39"/></g></symbol><symbol id="icon_energy" viewBox="0 0 80 80"><title>icon_energy</title><desc>Created with Sketch.</desc><g transform="translate(1 1)" fill="none" fill-rule="evenodd"><path d="M33 45.5v2c0 .567.186 1.087.5 1.504-.314.417-.5.935-.5 1.496 0 .567.186 1.087.5 1.504-.314.417-.5.935-.5 1.496 0 1.39 1.12 2.5 2.5 2.5h.5c0 1.657 1.343 3 3 3s3-1.343 3-3h.5c1.37 0 2.5-1.12 2.5-2.5 0-.567-.186-1.087-.5-1.504.314-.417.5-.935.5-1.496 0-.567-.186-1.087-.5-1.504.314-.417.5-.935.5-1.496v-3.964c4.16-2.168 7-6.52 7-11.536 0-7.18-5.82-13-13-13s-13 5.82-13 13c0 5.015 2.84 9.368 7 11.536V45.5zm2 5c0-.276.23-.5.5-.5h7c.276 0 .5.232.5.5 0 .276-.23.5-.5.5h-7c-.276 0-.5-.232-.5-.5zm0 3c0-.276.23-.5.5-.5h7c.276 0 .5.232.5.5 0 .276-.23.5-.5.5h-7c-.276 0-.5-.232-.5-.5zm0-6.5h8v.5c0 .276-.23.5-.5.5h-7c-.276 0-.5-.232-.5-.5V47zm15-15c0-6.075-4.925-11-11-11s-11 4.925-11 11c0 4.664 2.903 8.65 7 10.25V45h8v-2.75c4.097-1.6 7-5.586 7-10.25z" fill="#303338"/><path d="M35 31l2 2 2-2 2 2 2-2" stroke="#303338"/><path d="M43 31l-2 14M35 31l2 14" stroke="#303338" stroke-linecap="square"/><circle stroke="#DADADA" stroke-width="2" cx="39" cy="39" r="39"/></g></symbol><symbol id="icon_environment" viewBox="0 0 80 80"><title>icon_environment</title><desc>Created with Sketch.</desc><g transform="translate(1 1)" fill="none" fill-rule="evenodd"><path d="M37.4 53.28s-2.944 3.073-6.01 1.644c-3.065-1.43-4.097-6.356-4.83-7.81 0 0 5.407-.997 8.472.432 3.066 1.43 2.37 5.735 2.37 5.735zm7.653-15.064s-3.108-5.168.092-9.122c3.2-3.953 10.46-3.913 12.772-4.518 0 0-.75 8.06-3.95 12.012-3.2 3.954-8.914 1.628-8.914 1.628zm-10.24-.134s2.88-7.104-1.248-12.79C29.44 19.61 19.87 17.498 19.87 17.498s-.72 9.58 3.407 15.264c4.126 5.685 11.535 5.322 11.535 5.322z" stroke="#303338" stroke-width="2"/><path d="M39.48 45.053c.215-.48.433-.948.654-1.405 2.012-4.17 4.183-7.216 6.373-9.313 1.354-1.296 2.443-1.992 3.122-2.263.51-.206 1.09.044 1.295.557.206.51-.044 1.09-.557 1.295-.08.033-.29.14-.603.34-.558.357-1.19.853-1.878 1.512-2.014 1.926-4.046 4.777-5.956 8.736-2.444 5.067-4.496 11.565-6.016 19.667-.1.544-.624.9-1.167.8-.54-.102-.9-.625-.796-1.167.87-4.647 1.92-8.788 3.116-12.452-.08-.2-.095-.43-.028-.65 1.566-5.22-.217-9.99-4.38-14.69-.74-.835-1.52-1.63-2.433-2.5-.345-.324-1.66-1.545-1.928-1.805-.396-.385-.405-1.018-.02-1.414.385-.395 1.018-.404 1.414-.02.248.24 1.553 1.45 1.91 1.794.95.904 1.77 1.737 2.555 2.623 2.94 3.316 4.826 6.737 5.32 10.353z" fill="#303338"/><circle stroke="#DADADA" stroke-width="2" cx="39" cy="39" r="39"/></g></symbol><symbol id="icon_health" viewBox="0 0 80 80"><title>icon_health</title><desc>Created with Sketch.</desc><g transform="translate(1 1)" stroke-width="2" fill="none" fill-rule="evenodd"><path d="M47 31V19H31v12H19v16h12v12h16V47h12V31H47z" stroke="#303338"/><circle stroke="#DADADA" cx="39" cy="39" r="39"/></g></symbol><symbol id="icon_markets" viewBox="0 0 80 80"><title>icon_markets</title><desc>Created with Sketch.</desc><g transform="translate(1 1)" fill="none" fill-rule="evenodd"><path d="M23 32h5v20h-5V32zm2 2h1v16h-1V34zm7-2h5v20h-5V32zm2 2h1v16h-1V34zm7-2h5v20h-5V32zm2 2h1v16h-1V34zm7-2h5v20h-5V32zm2 2h1v16h-1V34zm-33-3v-4l20-7 20 7v4H19zm2-2v-1l18-6 18 6v1H21zm0 24h36v5H21v-5zm2 2h32v1H23v-1z" fill="#303338"/><circle stroke="#DADADA" stroke-width="2" cx="39" cy="39" r="39"/></g></symbol><symbol id="icon_realestate" viewBox="0 0 80 80"><title>icon_realestate</title><desc>Created with Sketch.</desc><g transform="translate(1 1)" fill="none" fill-rule="evenodd"><path d="M60 59v-2h-2V17H38v14H20v26h-2v2h42zM40 19h16v38H40V19zM22 33h16v24H22V33zm2 3h5v5h-5v-5zm2 2h1v1h-1v-1zm5-2h5v5h-5v-5zm2 2h1v1h-1v-1zm-9 5h5v5h-5v-5zm2 2h1v1h-1v-1zm5-2h5v5h-5v-5zm2 2h1v1h-1v-1zm-9 5h5v5h-5v-5zm2 2h1v1h-1v-1zm5-2h5v5h-5v-5zm2 2h1v1h-1v-1zm9-16h5v5h-5v-5zm2 2h1v1h-1v-1zm5-2h5v5h-5v-5zm2 2h1v1h-1v-1zm-9-9h5v5h-5v-5zm2 2h1v1h-1v-1zm5-2h5v5h-5v-5zm2 2h1v1h-1v-1zm-9-9h5v5h-5v-5zm2 2h1v1h-1v-1zm5-2h5v5h-5v-5zm2 2h1v1h-1v-1zm-9 19h5v5h-5v-5zm2 2h1v1h-1v-1zm5-2h5v5h-5v-5zm2 2h1v1h-1v-1zm-9 5h5v5h-5v-5zm2 2h1v1h-1v-1zm5-2h5v5h-5v-5zm2 2h1v1h-1v-1z" fill="#303338"/><circle stroke="#DADADA" stroke-width="2" cx="39" cy="39" r="39"/></g></symbol><symbol id="icon_small_email" viewBox="0 0 12 10"><title>icon_small_email</title><desc>Created with Sketch.</desc><path d="M12 3.225v5.64c0 .31-.106.58-.315.8-.21.224-.462.335-.757.335H1.07c-.293 0-.545-.11-.755-.334C.105 9.444 0 9.176 0 8.864v-5.64c.197.233.422.44.676.62 1.616 1.163 2.725 1.98 3.328 2.45.255.198.46.353.62.464.158.11.37.225.632.34.264.117.51.175.737.175h.013c.228 0 .474-.058.737-.174.263-.12.474-.23.633-.347.16-.11.365-.266.62-.465.758-.583 1.87-1.4 3.334-2.45.254-.185.478-.39.67-.618zm0-2.088c0 .374-.11.73-.33 1.072-.218.34-.49.63-.816.87L7.72 5.39l-.284.217c-.146.112-.266.202-.362.27-.096.07-.212.146-.348.23-.136.087-.264.15-.385.193-.12.043-.23.064-.33.064H6c-.102 0-.214-.02-.335-.064-.12-.043-.25-.106-.384-.192-.137-.085-.253-.162-.35-.23-.095-.07-.216-.16-.36-.27-.146-.112-.24-.184-.286-.217L2.526 4.1c-.763-.56-1.22-.898-1.373-1.012-.276-.2-.538-.472-.783-.82-.25-.35-.37-.675-.37-.97C0 .92.093.614.28.37.463.122.727 0 1.07 0h9.857c.29 0 .54.11.752.334.21.222.313.49.313.802z" fill="#fff" opacity=".75" fill-rule="evenodd"/></symbol><symbol id="icon_small_fax" viewBox="0 0 12 12"><title>icon_small_fax</title><desc>Created with Sketch.</desc><path d="M1.002 2C.456 2 0 2.45 0 3.003v4.994C0 8.562.45 9 1.002 9H2v3h8V9h.998C11.544 9 12 8.55 12 7.997V3.003C12 2.438 11.55 2 10.998 2H10V0H2v2h-.998zM3 1h6v1H3V1zm0 8h6v2H3V9zm0-5h3v1H3V4z" fill="#E3E6C5" fill-rule="evenodd"/></symbol><symbol id="icon_small_phone" viewBox="0 0 12 11"><title>icon_small_phone</title><desc>Created with Sketch.</desc><path d="M12.052 9.515L9 6.662c-.005.003-.938.75-.982.782-1.065.844-5.036-2.904-4.012-3.784l.988-.792L1.954 0C1.95 0 .97.79.954.802.277 1.37-1.6 2.78 3.484 7.577c5.127 4.84 6.813 3.306 7.565 2.738l1-.8z" fill="#fff" opacity=".75" fill-rule="evenodd"/></symbol><symbol id="logo" viewBox="0 0 160 64"><title>logo</title><desc>Created with Sketch.</desc><g fill="none" fill-rule="evenodd"><g><path d="M158.724 61.18v1.077c-.455.407-1.002.606-1.643.606-.732 0-1.342-.25-1.826-.742-.476-.5-.713-1.127-.713-1.878 0-.762.238-1.4.703-1.9.475-.503 1.074-.753 1.786-.753.836 0 1.507.354 2.002 1.075l.805-.836c-.68-.92-1.62-1.378-2.828-1.378-1.074 0-1.963.354-2.675 1.053-.7.7-1.052 1.62-1.052 2.737 0 1.095.35 1.994 1.062 2.705.712.698 1.57 1.053 2.592 1.053 1.228 0 2.333-.543 3.003-1.377v-2.57h-2.88v1.128h1.664zM148.815 63.885h1.237v-7.318h-1.237v5.178l-3.593-5.178h-1.228v7.318h1.228v-5.157l3.593 5.157zM139.072 63.885h1.227v-7.318h-1.228v7.318zM133.55 63.885l2.467-7.318h-1.27l-1.868 5.815-1.9-5.815h-1.27l2.488 7.318h1.352zM125.45 63.885h1.226v-7.318h-1.227v7.318zM117.626 63.885h4.655V62.76h-3.427v-6.193h-1.227v7.318zM110.813 63.885l-1.66-2.704c.938-.364 1.474-1.147 1.474-2.223 0-1.503-1.053-2.39-2.756-2.39h-2.755v7.318h1.227V61.39h1.498l1.518 2.495h1.455zm-3.097-3.632h-1.374v-2.56h1.374c1.126 0 1.683.43 1.683 1.275 0 .856-.558 1.285-1.684 1.285zM96.446 63.885h5.088V62.76h-3.86v-2.04h3.684v-1.136h-3.685v-1.89h3.86v-1.127h-5.087v7.318zM91.13 57.693h2.21v-1.126h-5.584v1.126h2.147v6.192h1.227v-6.192zM82.915 57.693h2.21v-1.126H79.54v1.126h2.147v6.192h1.228v-6.192zM71.46 63.885h5.087V62.76h-3.86v-2.04h3.685v-1.136h-3.686v-1.89h3.86v-1.127H71.46v7.318zM67.063 60.075c.546-.396.814-.92.814-1.567 0-.648-.226-1.128-.67-1.45-.443-.325-1.052-.49-1.817-.49h-3.013v7.317h3.19c1.517 0 2.486-.792 2.486-2.077 0-.742-.33-1.326-.99-1.733zm-.433-1.452c0 .638-.496.96-1.487.96h-1.54v-1.89h1.478c.98 0 1.55.22 1.55.93zm.186 3.07c0 .71-.538 1.066-1.6 1.066h-1.612v-2.04h1.652c1.043 0 1.56.325 1.56.973zM55.695 63.885l-1.66-2.704c.94-.364 1.475-1.147 1.475-2.223 0-1.503-1.052-2.39-2.756-2.39h-2.756v7.318h1.227V61.39h1.498l1.518 2.495h1.455zM52.6 60.253h-1.375v-2.56H52.6c1.125 0 1.682.43 1.682 1.275 0 .856-.557 1.285-1.683 1.285zM45.706 62.915c.71-.72 1.062-1.618 1.062-2.695 0-1.064-.35-1.962-1.062-2.684-.713-.72-1.58-1.084-2.623-1.084-1.043 0-1.91.365-2.612 1.084-.69.722-1.04 1.62-1.04 2.684 0 1.077.35 1.975 1.04 2.695.703.72 1.57 1.085 2.613 1.085s1.91-.366 2.623-1.085zm-.176-2.695c0 .753-.227 1.38-.68 1.89-.456.502-1.034.753-1.726.753-.712 0-1.29-.25-1.755-.752-.456-.5-.682-1.127-.682-1.89 0-.74.226-1.367.68-1.87.466-.5 1.044-.75 1.756-.75.692 0 1.27.25 1.725.75.453.503.68 1.13.68 1.87zM33.215 57.693h3.51v-1.126h-4.737v7.318h1.227V60.72h3.273v-1.136h-3.273v-1.89zM22.933 63.885l1.88-7.318H23.49l-1.228 5.345-1.33-5.345h-1.415l-1.32 5.345-1.26-5.345h-1.31l1.887 7.318h1.353l1.352-5.292 1.35 5.292h1.363zM12.82 63.885h1.29l-2.82-7.318h-1.238l-2.827 7.318h1.3l.6-1.556h3.085l.61 1.555zm-1.055-2.703H9.567l1.094-2.923 1.105 2.922zM0 63.885h4.655V62.76H1.227v-6.193H0v7.318z" id="Path" fill="#7F8184"/><path d="M64.794 15.353C63.19 6.8 55.764.333 46.84.333c-8.923 0-16.348 6.467-17.953 15.02h7.054c1.456-4.687 5.785-8.088 10.9-8.088s9.444 3.4 10.9 8.088h7.054z" fill="#A9B72C"/><path d="M14.955 22.286l2.632-6.933H0v6.933h14.955z" fill="#A9B72C"/><path d="M0 15.353v6.933h14.955l2.632-6.933H0" fill="#A9B72C"/><path d="M28.887 22.286c1.605 8.554 9.03 15.022 17.953 15.022s16.35-6.468 17.954-15.022H57.74c-1.456 4.688-5.785 8.09-10.9 8.09s-9.444-3.402-10.9-8.09h-7.053" fill="#303338"/><path d="M64.794 15.353C63.19 6.8 55.764.33 46.84.33c-8.923 0-16.35 6.47-17.953 15.023h7.053c1.456-4.687 5.785-8.088 10.9-8.088s9.443 3.4 10.9 8.088h7.054" fill="#A9B72C"/><path d="M70.83 1.487v20.8c0 8.296 6.65 15.02 14.852 15.02 8.203 0 14.852-6.724 14.852-15.02V9.536L93.68 7.68v14.606c0 4.467-3.58 8.09-7.998 8.09-4.417 0-7.997-3.623-7.997-8.09V3.346l-6.854-1.86" fill="#303338"/><path d="M118.7.332l-13.597 35.82h6.855l2.632-6.933h15.072l-2.63-6.934h-9.81l4.904-12.924L118.7.332" fill="#303338"/><path d="M46.84 44.242v-6.934l18.28 4.954v6.933l-18.28-4.953" fill="#303338"/><path d="M138.234 36.153h21.706V29.22h-14.852V5.656l-6.854-1.858v32.355" fill="#303338"/><path d="M0 1.487V8.42h20.218l2.63-6.933H0" fill="#303338"/><path d="M0 29.22h22.85v6.933H0V29.22z" fill="#303338"/></g></g></symbol><symbol id="logo_footer" viewBox="0 0 120 48"><title>logo_footer</title><desc>Created with Sketch.</desc><g fill="none" fill-rule="evenodd"><path d="M119.043 45.886v.806c-.34.306-.752.455-1.232.455-.55 0-1.005-.188-1.37-.556-.355-.374-.533-.844-.533-1.41 0-.57.178-1.047.526-1.423.356-.377.806-.564 1.34-.564.628 0 1.13.266 1.502.807l.604-.628c-.51-.69-1.216-1.033-2.12-1.033-.807 0-1.474.264-2.008.79-.525.523-.788 1.212-.788 2.05 0 .822.263 1.496.797 2.03.534.523 1.177.79 1.943.79.922 0 1.75-.408 2.253-1.034V45.04h-2.16v.846h1.248zm-7.433 2.027h.93v-5.488h-.93v3.883l-2.694-3.883h-.92v5.488h.92v-3.867l2.695 3.867zm-7.306 0h.92v-5.488h-.92v5.488zm-4.14 0l1.85-5.488h-.953l-1.4 4.362-1.424-4.362h-.952l1.865 5.488h1.014zm-6.077 0h.92v-5.488h-.92v5.488zm-5.867 0h3.49v-.844h-2.57v-4.646h-.92v5.488zm-5.11 0l-1.246-2.027c.704-.274 1.106-.86 1.106-1.668 0-1.128-.79-1.793-2.067-1.793h-2.067v5.488h.92v-1.87h1.124l1.138 1.87h1.092zm-2.323-2.724h-1.03v-1.92h1.03c.844 0 1.262.32 1.262.955 0 .642-.42.963-1.264.963zm-8.453 2.723h3.816v-.844h-2.895v-1.53h2.764v-.853h-2.766V43.27h2.895v-.845h-3.817v5.488zm-3.987-4.643h1.657v-.845h-4.187v.845h1.61v4.643h.92V43.27zm-6.16 0h1.656v-.845h-4.188v.845h1.61v4.643h.92V43.27zm-8.593 4.643h3.816v-.844h-2.895v-1.53h2.764v-.853h-2.766V43.27h2.895v-.845h-3.817v5.488zm-3.297-2.857c.41-.297.61-.69.61-1.175 0-.484-.17-.844-.502-1.086-.332-.243-.79-.368-1.362-.368h-2.26v5.488h2.39c1.14 0 1.867-.594 1.867-1.557 0-.557-.248-.995-.743-1.3zm-.325-1.09c0 .48-.37.722-1.115.722h-1.154V43.27h1.107c.736 0 1.162.165 1.162.697zm.14 2.304c0 .533-.403.8-1.2.8H47.7v-1.53h1.24c.782 0 1.17.244 1.17.73zm-8.342 1.643l-1.244-2.027c.704-.274 1.106-.86 1.106-1.668 0-1.128-.79-1.793-2.067-1.793H37.5v5.488h.92v-1.87h1.122l1.14 1.87h1.09zm-2.32-2.724h-1.03v-1.92h1.03c.843 0 1.262.32 1.262.955 0 .642-.42.963-1.263.963zm-5.17 1.996c.533-.54.796-1.214.796-2.02 0-.8-.263-1.473-.797-2.014-.536-.54-1.186-.813-1.97-.813-.78 0-1.43.272-1.96.81-.516.54-.78 1.216-.78 2.014 0 .807.264 1.48.78 2.02.53.54 1.18.815 1.96.815.784 0 1.434-.275 1.968-.815zm-.132-2.02c0 .564-.17 1.034-.51 1.417-.342.376-.776.564-1.295.564-.534 0-.968-.188-1.316-.564-.34-.376-.51-.846-.51-1.418 0-.556.17-1.025.51-1.402.348-.375.782-.564 1.316-.564.52 0 .953.187 1.294.562.34.377.51.846.51 1.402zM24.91 43.27h2.634v-.845H23.99v5.488h.92V45.54h2.456v-.852H24.91V43.27zm-7.71 4.643l1.41-5.488h-.992l-.92 4.01-1-4.01h-1.06l-.99 4.01-.946-4.01h-.983l1.415 5.488h1.014l1.013-3.97 1.014 3.97H17.2zm-7.586 0h.967l-2.11-5.488h-.93l-2.12 5.488h.976l.45-1.166H9.16l.456 1.166zm-.79-2.027H7.176l.82-2.192.828 2.192zM0 47.913h3.49v-.844H.92v-4.646H0v5.488z" fill="#fff"/><path d="M48.595 11.515C47.392 5.1 41.823.25 35.13.25c-6.692 0-12.26 4.85-13.465 11.265h5.29C28.048 8 31.295 5.45 35.13 5.45c3.836 0 7.083 2.55 8.175 6.065h5.29zM11.216 16.715l1.974-5.2H0v5.2h11.216z" fill="#A9B72C"/><path d="M0 11.515v5.2h11.216l1.974-5.2H0" fill="#fff"/><path d="M21.665 16.715C22.87 23.13 28.438 27.98 35.13 27.98c6.693 0 12.262-4.85 13.465-11.265h-5.29c-1.092 3.516-4.34 6.066-8.175 6.066-3.836 0-7.083-2.55-8.174-6.064h-5.29" fill="#303338"/><path d="M48.595 11.515C47.392 5.1 41.822.25 35.13.25S22.87 5.1 21.665 11.514h5.29C28.047 8 31.293 5.45 35.13 5.45c3.836 0 7.082 2.55 8.175 6.065h5.29" fill="#fff"/><path d="M53.123 1.115v15.6c0 6.222 4.987 11.266 11.14 11.266 6.15 0 11.138-5.042 11.138-11.264V7.153L70.26 5.76v10.955c0 3.35-2.686 6.066-5.998 6.066-3.313 0-5.998-2.714-5.998-6.064V2.51l-5.14-1.395M89.024.25L78.828 27.113h5.14l1.975-5.2h11.303l-1.973-5.2h-7.357l3.678-9.693-2.57-6.77M35.13 33.18v-5.2l13.71 3.717v5.2L35.13 33.18M103.675 27.115h16.28v-5.2h-11.14V4.242l-5.14-1.393v24.264M0 1.115v5.2h15.164l1.973-5.2H0" fill="#303338"/><path d="M0 21.915h17.137v5.2H0v-5.2z" fill="#303338"/></g></symbol></svg>