<svg width="35" height="35" viewBox="0 0 35 35" xmlns="http://www.w3.org/2000/svg"><title>LinkedIn</title><desc>LinkedIn icon</desc><path class="icon__circle" d="M17.5 34C26.613 34 34 26.613 34 17.5S26.613 1 17.5 1 1 8.387 1 17.5 8.387 34 17.5 34z" stroke="#979797" stroke-width="2" fill="none"/><path class="icon__content" d="M17.232 14.333h-2.574V23h2.574v-4.55c0-1.218.562-1.944 1.636-1.944.987 0 1.46.697 1.46 1.945V23H23v-5.488c0-2.32-1.316-3.443-3.155-3.443-1.84 0-2.613 1.43-2.613 1.43V14.33zm-4.29 0h-2.684V23h2.684v-8.667zm.232-2.734c0 .88-.71 1.597-1.587 1.597-.876 0-1.587-.716-1.587-1.6 0-.882.71-1.598 1.587-1.598s1.587.715 1.587 1.6z" fill="#979797"/></svg>