<svg class="icon" width="35" height="35" viewBox="0 0 35 35" xmlns="http://www.w3.org/2000/svg"><title>Phone</title><desc>Phone icon</desc><path class="icon__circle" d="M17.5 34C26.613 34 34 26.613 34 17.5S26.613 1 17.5 1 1 8.387 1 17.5 8.387 34 17.5 34z" stroke="#979797" stroke-width="2" fill="none"/><path class="icon__content" d="M21.032 19.058c-.004.003-1.04.78-1.088.814-1.182.878-5.04-3.655-3.898-4.577l1.096-.825L14.188 11l-1.11.836c-.75.593-2.827 2.055 2.11 7.858 4.982 5.853 6.868 4.24 7.7 3.65.064-.045 1.108-.83 1.112-.833l-2.968-3.45z" fill="#979797"/></svg>