<svg class="icon" width="35" height="35" viewBox="0 0 35 35" xmlns="http://www.w3.org/2000/svg"><title>Mail</title><desc>Mail icon</desc><path class="icon__circle" d="M17.5 34C26.613 34 34 26.613 34 17.5S26.613 1 17.5 1 1 8.387 1 17.5 8.387 34 17.5 34z" stroke="#979797" stroke-width="2" fill="none"/><path class="icon__content" d="M24 15.547v6.203c0 .344-.115.638-.342.883-.227.245-.5.367-.82.367H12.16c-.318 0-.592-.122-.82-.367-.227-.245-.34-.54-.34-.883v-6.203c.213.256.457.482.733.68 1.75 1.28 2.952 2.18 3.605 2.695.276.22.5.39.67.512.172.122.4.247.687.375.285.12.55.19.798.19h.014c.247 0 .513-.07.798-.19.285-.13.514-.26.686-.38.18-.13.4-.3.68-.51.82-.64 2.03-1.54 3.61-2.7.28-.21.52-.43.73-.68zm0-2.297c0 .412-.12.805-.357 1.18-.237.375-.532.695-.884.96l-3.4 2.54c-.05.036-.15.116-.31.238l-.39.297c-.11.076-.23.16-.38.254-.15.09-.29.16-.42.21-.13.04-.26.07-.37.07h-.014c-.113 0-.233-.03-.364-.07-.13-.05-.27-.12-.42-.21-.147-.1-.273-.18-.377-.26l-.39-.3-.31-.24c-.44-.34-1.073-.81-1.9-1.43-.827-.62-1.322-.99-1.487-1.117-.3-.22-.585-.52-.85-.903-.268-.382-.4-.74-.4-1.066 0-.403.1-.74.3-1.012.2-.27.49-.407.86-.407h10.68c.313 0 .585.123.815.37.23.245.344.54.344.883z" fill="#979797"/></svg>