<svg class="icon" width="35" height="35" viewBox="0 0 35 35" xmlns="http://www.w3.org/2000/svg"><title>Twitter</title><desc>Twitter icon</desc><path class="icon__circle" d="M17.5 34C26.613 34 34 26.613 34 17.5S26.613 1 17.5 1 1 8.387 1 17.5 8.387 34 17.5 34z" stroke="#979797" stroke-width="2" fill="none"/><path class="icon__content" d="M24.115 13.056c.677-.407 1.198-1.05 1.443-1.816-.634.376-1.337.65-2.085.796-.598-.638-1.45-1.036-2.396-1.036-2.118 0-3.676 1.977-3.197 4.03-2.728-.137-5.147-1.444-6.766-3.43-.86 1.476-.446 3.405 1.016 4.382-.538-.017-1.045-.164-1.487-.41-.036 1.52 1.054 2.942 2.633 3.26-.462.125-.968.154-1.483.055.418 1.304 1.63 2.253 3.067 2.28-1.38 1.08-3.118 1.564-4.86 1.358 1.453.932 3.178 1.475 5.032 1.475 6.094 0 9.538-5.146 9.33-9.762.64-.463 1.198-1.04 1.638-1.7-.59.262-1.22.438-1.885.518z" fill="#979797"/></svg>