<svg class="icon" width="35" height="35" viewBox="0 0 35 35" xmlns="http://www.w3.org/2000/svg"><title>Link</title><desc>Link icon</desc><path class="icon__circle" d="M17.5 34C26.613 34 34 26.613 34 17.5S26.613 1 17.5 1 1 8.387 1 17.5 8.387 34 17.5 34z" stroke="#979797" stroke-width="2" fill="none"/><path class="icon__content" d="M14.352 15.723c.238-.238.502-.434.782-.59 1.564-.86 3.57-.402 4.574 1.122l-1.216 1.216c-.35-.79-1.215-1.24-2.077-1.05-.324.08-.632.24-.884.49l-2.33 2.33c-.71.71-.71 1.86 0 2.57.71.71 1.86.71 2.57 0l.72-.72c.66.26 1.36.37 2.05.31l-1.58 1.59c-1.36 1.36-3.565 1.36-4.925 0-1.36-1.36-1.36-3.56 0-4.92l2.333-2.33zm3.702-3.703l-1.586 1.587c.692-.052 1.393.052 2.047.31l.718-.718c.708-.71 1.86-.71 2.568 0 .71.7.71 1.86 0 2.56l-2.33 2.33c-.71.71-1.86.7-2.56 0-.16-.17-.3-.37-.39-.57l-1.22 1.21c.13.193.26.36.43.53.44.44 1 .766 1.65.92.834.2 1.73.09 2.5-.333.28-.154.542-.35.78-.59l2.332-2.33c1.36-1.36 1.36-3.565 0-4.925-1.36-1.36-3.562-1.36-4.923 0z" fill="#979797"/></svg>