<svg width="80" height="80" viewBox="0 0 80 80" xmlns="http://www.w3.org/2000/svg"><title>icon_economy</title><desc>Created with Sketch.</desc><g transform="translate(1 1)" fill="none" fill-rule="evenodd"><path fill="#303338" d="M26 32h33v20H26z"/><path fill="#fff" d="M28 34h29v16H28z"/><path fill="#303338" d="M23 29h33v20H23z"/><path fill="#fff" d="M25 31h29v16H25z"/><path fill="#303338" d="M20 26h33v20H20z"/><path fill="#fff" d="M22 28h29v16H22z"/><path d="M37.03 32.36c-.64 0-1.167.192-1.574.575-.408.382-.68.96-.817 1.736h3.11v1.06h-3.22l-.017.31v.377l.014.267h2.79v1.046h-2.67c.29 1.42 1.12 2.132 2.49 2.132.65 0 1.317-.142 2-.424v1.388c-.596.278-1.29.417-2.084.417-1.1 0-1.992-.3-2.678-.903-.69-.6-1.14-1.47-1.35-2.61H32v-1.05h.93l-.014-.254v-.252l.014-.443H32v-1.06h1.025c.174-1.14.61-2.04 1.306-2.69.7-.65 1.6-.98 2.7-.98.92 0 1.73.2 2.45.61l-.57 1.277c-.7-.345-1.323-.52-1.87-.52z" fill="#000"/><path d="M27 43h1v-2h-5v2h4zm22-12h1v-2h-5v2h4zm-22 0h1v-2h-5v2h4zm22 12h1v-2h-5v2h4z" fill="#303338"/><circle stroke="#DADADA" stroke-width="2" cx="39" cy="39" r="39"/></g></svg>