<svg width="80" height="80" viewBox="0 0 80 80" xmlns="http://www.w3.org/2000/svg"><title>icon_energy</title><desc>Created with Sketch.</desc><g transform="translate(1 1)" fill="none" fill-rule="evenodd"><path d="M33 45.5v2c0 .567.186 1.087.5 1.504-.314.417-.5.935-.5 1.496 0 .567.186 1.087.5 1.504-.314.417-.5.935-.5 1.496 0 1.39 1.12 2.5 2.5 2.5h.5c0 1.657 1.343 3 3 3s3-1.343 3-3h.5c1.37 0 2.5-1.12 2.5-2.5 0-.567-.186-1.087-.5-1.504.314-.417.5-.935.5-1.496 0-.567-.186-1.087-.5-1.504.314-.417.5-.935.5-1.496v-3.964c4.16-2.168 7-6.52 7-11.536 0-7.18-5.82-13-13-13s-13 5.82-13 13c0 5.015 2.84 9.368 7 11.536V45.5zm2 5c0-.276.23-.5.5-.5h7c.276 0 .5.232.5.5 0 .276-.23.5-.5.5h-7c-.276 0-.5-.232-.5-.5zm0 3c0-.276.23-.5.5-.5h7c.276 0 .5.232.5.5 0 .276-.23.5-.5.5h-7c-.276 0-.5-.232-.5-.5zm0-6.5h8v.5c0 .276-.23.5-.5.5h-7c-.276 0-.5-.232-.5-.5V47zm15-15c0-6.075-4.925-11-11-11s-11 4.925-11 11c0 4.664 2.903 8.65 7 10.25V45h8v-2.75c4.097-1.6 7-5.586 7-10.25z" fill="#303338"/><path d="M35 31l2 2 2-2 2 2 2-2" stroke="#303338"/><path d="M43 31l-2 14M35 31l2 14" stroke="#303338" stroke-linecap="square"/><circle stroke="#DADADA" stroke-width="2" cx="39" cy="39" r="39"/></g></svg>