<svg width="80" height="80" viewBox="0 0 80 80" xmlns="http://www.w3.org/2000/svg"><title>icon_markets</title><desc>Created with Sketch.</desc><g transform="translate(1 1)" fill="none" fill-rule="evenodd"><path d="M23 32h5v20h-5V32zm2 2h1v16h-1V34zm7-2h5v20h-5V32zm2 2h1v16h-1V34zm7-2h5v20h-5V32zm2 2h1v16h-1V34zm7-2h5v20h-5V32zm2 2h1v16h-1V34zm-33-3v-4l20-7 20 7v4H19zm2-2v-1l18-6 18 6v1H21zm0 24h36v5H21v-5zm2 2h32v1H23v-1z" fill="#303338"/><circle stroke="#DADADA" stroke-width="2" cx="39" cy="39" r="39"/></g></svg>