<svg width="80" height="80" viewBox="0 0 80 80" xmlns="http://www.w3.org/2000/svg"><title>icon_realestate</title><desc>Created with Sketch.</desc><g transform="translate(1 1)" fill="none" fill-rule="evenodd"><path d="M60 59v-2h-2V17H38v14H20v26h-2v2h42zM40 19h16v38H40V19zM22 33h16v24H22V33zm2 3h5v5h-5v-5zm2 2h1v1h-1v-1zm5-2h5v5h-5v-5zm2 2h1v1h-1v-1zm-9 5h5v5h-5v-5zm2 2h1v1h-1v-1zm5-2h5v5h-5v-5zm2 2h1v1h-1v-1zm-9 5h5v5h-5v-5zm2 2h1v1h-1v-1zm5-2h5v5h-5v-5zm2 2h1v1h-1v-1zm9-16h5v5h-5v-5zm2 2h1v1h-1v-1zm5-2h5v5h-5v-5zm2 2h1v1h-1v-1zm-9-9h5v5h-5v-5zm2 2h1v1h-1v-1zm5-2h5v5h-5v-5zm2 2h1v1h-1v-1zm-9-9h5v5h-5v-5zm2 2h1v1h-1v-1zm5-2h5v5h-5v-5zm2 2h1v1h-1v-1zm-9 19h5v5h-5v-5zm2 2h1v1h-1v-1zm5-2h5v5h-5v-5zm2 2h1v1h-1v-1zm-9 5h5v5h-5v-5zm2 2h1v1h-1v-1zm5-2h5v5h-5v-5zm2 2h1v1h-1v-1z" fill="#303338"/><circle stroke="#DADADA" stroke-width="2" cx="39" cy="39" r="39"/></g></svg>