<svg width="80" height="80" viewBox="0 0 80 80" xmlns="http://www.w3.org/2000/svg"><title>icon_environment</title><desc>Created with Sketch.</desc><g transform="translate(1 1)" fill="none" fill-rule="evenodd"><path d="M37.4 53.28s-2.944 3.073-6.01 1.644c-3.065-1.43-4.097-6.356-4.83-7.81 0 0 5.407-.997 8.472.432 3.066 1.43 2.37 5.735 2.37 5.735zm7.653-15.064s-3.108-5.168.092-9.122c3.2-3.953 10.46-3.913 12.772-4.518 0 0-.75 8.06-3.95 12.012-3.2 3.954-8.914 1.628-8.914 1.628zm-10.24-.134s2.88-7.104-1.248-12.79C29.44 19.61 19.87 17.498 19.87 17.498s-.72 9.58 3.407 15.264c4.126 5.685 11.535 5.322 11.535 5.322z" stroke="#303338" stroke-width="2"/><path d="M39.48 45.053c.215-.48.433-.948.654-1.405 2.012-4.17 4.183-7.216 6.373-9.313 1.354-1.296 2.443-1.992 3.122-2.263.51-.206 1.09.044 1.295.557.206.51-.044 1.09-.557 1.295-.08.033-.29.14-.603.34-.558.357-1.19.853-1.878 1.512-2.014 1.926-4.046 4.777-5.956 8.736-2.444 5.067-4.496 11.565-6.016 19.667-.1.544-.624.9-1.167.8-.54-.102-.9-.625-.796-1.167.87-4.647 1.92-8.788 3.116-12.452-.08-.2-.095-.43-.028-.65 1.566-5.22-.217-9.99-4.38-14.69-.74-.835-1.52-1.63-2.433-2.5-.345-.324-1.66-1.545-1.928-1.805-.396-.385-.405-1.018-.02-1.414.385-.395 1.018-.404 1.414-.02.248.24 1.553 1.45 1.91 1.794.95.904 1.77 1.737 2.555 2.623 2.94 3.316 4.826 6.737 5.32 10.353z" fill="#303338"/><circle stroke="#DADADA" stroke-width="2" cx="39" cy="39" r="39"/></g></svg>