<svg width="12" height="10" viewBox="0 0 12 10" xmlns="http://www.w3.org/2000/svg"><title>icon_small_email</title><desc>Created with Sketch.</desc><path d="M12 3.225v5.64c0 .31-.106.58-.315.8-.21.224-.462.335-.757.335H1.07c-.293 0-.545-.11-.755-.334C.105 9.444 0 9.176 0 8.864v-5.64c.197.233.422.44.676.62 1.616 1.163 2.725 1.98 3.328 2.45.255.198.46.353.62.464.158.11.37.225.632.34.264.117.51.175.737.175h.013c.228 0 .474-.058.737-.174.263-.12.474-.23.633-.347.16-.11.365-.266.62-.465.758-.583 1.87-1.4 3.334-2.45.254-.185.478-.39.67-.618zm0-2.088c0 .374-.11.73-.33 1.072-.218.34-.49.63-.816.87L7.72 5.39l-.284.217c-.146.112-.266.202-.362.27-.096.07-.212.146-.348.23-.136.087-.264.15-.385.193-.12.043-.23.064-.33.064H6c-.102 0-.214-.02-.335-.064-.12-.043-.25-.106-.384-.192-.137-.085-.253-.162-.35-.23-.095-.07-.216-.16-.36-.27-.146-.112-.24-.184-.286-.217L2.526 4.1c-.763-.56-1.22-.898-1.373-1.012-.276-.2-.538-.472-.783-.82-.25-.35-.37-.675-.37-.97C0 .92.093.614.28.37.463.122.727 0 1.07 0h9.857c.29 0 .54.11.752.334.21.222.313.49.313.802z" fill="#fff" opacity=".75" fill-rule="evenodd"/></svg>