<svg width="100" height="31" viewBox="0 0 100 31" xmlns="http://www.w3.org/2000/svg"><title>logo_footer</title><desc>Created with Sketch.</desc><g fill="none" fill-rule="evenodd"><g><path d="M99.208 29.47v.062c0 .335-.232.464-.494.464-.295 0-.554-.177-.554-.486v-.82c0-.366.298-.495.536-.495.228 0 .512.096.512.43v.037h.44v-.08c0-.57-.476-.81-.952-.81-.546 0-.997.336-.997.944v.82c0 .57.47.884 1.014.884.476 0 .934-.273.934-.845v-.535h-1.085v.43h.645zm-3.248.907h.454v-2.564h-.447v1.747h-.007l-1.086-1.747h-.45v2.564h.446v-1.75h.007l1.083 1.75zm-3.35 0h.466v-2.563h-.465v2.563zm-1.92.01l.826-2.574h-.462L90.49 29.7h-.007l-.564-1.887h-.504l.82 2.574h.454zm-2.835-.01h.466v-2.563h-.465v2.563zm-2.866 0h1.68v-.42h-1.215v-2.144h-.466v2.564zm-2.314 0l-.62-1.014c.336-.122.494-.44.494-.744 0-.526-.378-.807-.847-.807h-.987v2.564h.465v-.96h.404l.585.96h.506zm-1.03-1.362h-.465v-.8h.46c.26 0 .456.098.456.4 0 .267-.18.4-.45.4zm-3.96 1.362h1.746v-.42H78.15v-.677h1.124v-.42H78.15v-.626h1.268v-.42h-1.732v2.563zm-1.908-2.154h.718v-.41H74.6v.41h.716v2.154h.462v-2.154zm-2.97 0h.717v-.41h-1.897v.41h.717v2.154h.462v-2.154zm-4.053 2.154H70.5v-.42h-1.28v-.677h1.124v-.42H69.22v-.626h1.267v-.42h-1.732v2.563zm-1.673-1.355v-.004c.256-.122.354-.313.354-.543 0-.442-.287-.662-.77-.662h-1.072v2.564h1.13c.414 0 .79-.255.79-.737 0-.288-.145-.54-.432-.618zm-.1-.486c0 .21-.137.33-.373.33h-.55v-.646h.53c.233 0 .39.093.39.316zm.07 1.075c0 .235-.158.36-.407.36h-.585v-.7h.588c.26 0 .403.107.403.34zm-3.755.767l-.62-1.014c.336-.122.493-.44.493-.744 0-.526-.377-.807-.846-.807h-.988v2.564h.466v-.96h.402l.585.96h.507zm-1.03-1.362h-.465v-.8h.458c.26 0 .456.098.456.4 0 .267-.18.4-.448.4zm-2.214.46v-.77c0-.572-.472-.934-1.015-.934-.495 0-.998.338-.998.946v.82c0 .57.472.884 1.015.884.494 0 .998-.338.998-.945zm-.466.025c0 .367-.294.496-.532.496-.294 0-.55-.176-.55-.485v-.82c0-.366.294-.495.533-.495.293 0 .55.176.55.485v.82zm-3.878-1.266h1.207v-.42H55.24v2.563h.47v-1.08h1.035v-.415H55.71v-.648zm-3.534 2.153l.648-2.574h-.47l-.4 1.805h-.006l-.455-1.805h-.396l-.458 1.795h-.008l-.392-1.795h-.476l.644 2.574h.434l.448-1.808h.007l.448 1.807h.43zm-3.675-.01h.495l-.92-2.564h-.428l-.928 2.564h.458l.19-.547h.95l.183.547zm-.314-.956h-.69l.344-1.025h.007l.34 1.026zm-4.16.957h1.68v-.42H44.49v-2.144h-.465v2.564z" fill="#fff"/><path d="M10.977 9.042H0v4.393h9.335l1.642-4.393z" fill="#fff"/><path d="M17.61 13.563c1.002 5.42 5.637 9.52 11.206 9.52 5.57 0 10.205-4.1 11.207-9.52H35.62c-.91 2.97-3.61 5.125-6.804 5.125-3.192 0-5.894-2.155-6.803-5.125H17.61z" fill="#303338"/><path d="M40.023 9.52C39.02 4.1 34.387 0 28.816 0c-5.57 0-10.204 4.1-11.206 9.52h4.403c.908-2.97 3.61-5.126 6.803-5.126S34.71 6.55 35.62 9.52h4.403z" fill="#fff"/><path d="M44.025.646v13.18c0 5.258 4.15 9.52 9.27 9.52 5.12 0 9.27-4.262 9.27-9.52v-8.08L58.288 4.57v9.257c0 2.83-2.235 5.126-4.99 5.126-2.76 0-4.993-2.295-4.993-5.126V1.823L44.024.646z" fill="#303338"/><path d="M76.035 5.723L73.895 0 65.41 22.7h4.278l1.642-4.393h9.408l-1.642-4.394h-6.123l3.062-8.19z" fill="#303338"/><path d="M28.93 27.644V23.25l11.41 3.14v4.394l-11.41-3.14z" fill="#303338"/><path d="M99.713 18.048h-9.27V3.115l-4.28-1.178v20.504h13.55V18.05z" fill="#303338"/><path d="M12.62 5.04L14.26.646H0V5.04h12.62z" fill="#303338"/><path d="M0 22.477h14.262v-4.394H0v4.394z" fill="#303338"/></g></g></svg>