<svg width="160" height="49" viewBox="0 0 160 49" xmlns="http://www.w3.org/2000/svg"><title>logo</title><desc>Created with Sketch.</desc><g fill="none" fill-rule="evenodd"><g><path d="M158.732 46.583v.097c0 .528-.37.733-.79.733-.47 0-.885-.28-.885-.768V45.35c0-.58.476-.785.857-.785.364 0 .818.154.818.682v.058h.705v-.126c0-.904-.76-1.284-1.523-1.284-.875 0-1.596.533-1.596 1.493v1.295c0 .904.756 1.398 1.624 1.398.762 0 1.495-.432 1.495-1.335v-.846H157.7v.68h1.032zm-5.196 1.432h.727v-4.052h-.716v2.762h-.01l-1.738-2.762h-.723v4.052h.716v-2.768h.01l1.733 2.768zm-5.36 0h.746v-4.05h-.745v4.05zm-3.072.016l1.322-4.067h-.74l-.9 2.983h-.013l-.902-2.983h-.805l1.31 4.068h.73zm-4.535-.015h.743v-4.05h-.744v4.05zm-4.587 0h2.69v-.665h-1.945v-3.387h-.745v4.052zm-3.7 0l-.992-1.603c.538-.193.79-.693.79-1.176 0-.83-.604-1.273-1.355-1.273h-1.58v4.052h.745v-1.518h.644l.936 1.518h.812zm-1.648-2.153h-.745V44.6h.734c.415 0 .73.153.73.63 0 .422-.288.632-.72.632zm-6.338 2.153h2.794v-.665h-2.05v-1.068h1.8v-.665h-1.8v-.99h2.028v-.664h-2.77v4.052zm-3.052-3.405h1.148v-.647h-3.035v.647h1.148v3.405h.74V44.61zm-4.754 0h1.15v-.647h-3.036v.647h1.148v3.405h.74V44.61zm-6.482 3.405h2.794v-.665h-2.05v-1.068h1.798v-.665h-1.798v-.99h2.028v-.664h-2.772v4.052zm-2.676-2.142v-.006c.408-.193.565-.494.565-.858 0-.7-.46-1.047-1.23-1.047h-1.716v4.052h1.81c.66 0 1.26-.403 1.26-1.165 0-.455-.23-.852-.688-.977zm-.162-.767c0 .33-.22.522-.595.522h-.88v-1.023h.847c.375 0 .628.148.628.5zm.112 1.698c0 .37-.252.57-.65.57h-.936v-1.11h.94c.416 0 .646.17.646.54zm-6.007 1.21l-.99-1.602c.536-.193.788-.693.788-1.176 0-.83-.604-1.273-1.355-1.273h-1.58v4.052h.745v-1.518h.644l.936 1.518h.812zm-1.646-2.152h-.747V44.6h.734c.415 0 .728.153.728.63 0 .422-.286.632-.716.632zm-3.545.727v-1.217c0-.904-.756-1.477-1.625-1.477-.79 0-1.596.533-1.596 1.493v1.296c0 .903.755 1.397 1.625 1.397.788 0 1.595-.534 1.595-1.494zm-.745.04c0 .578-.47.783-.85.783-.472 0-.882-.278-.882-.767V45.35c0-.58.47-.785.852-.785.47 0 .88.28.88.768v1.296zm-6.205-2.002h1.932v-.665h-2.683v4.052h.75V46.31h1.658v-.658h-1.657v-1.024zm-5.653 3.403l1.036-4.067h-.75l-.64 2.852h-.01l-.73-2.852h-.632l-.734 2.836h-.01l-.63-2.837h-.76l1.03 4.068h.695l.717-2.856h.012l.716 2.857h.69zm-5.88-.015h.79l-1.473-4.052h-.685l-1.484 4.052h.735l.302-.864h1.523l.292.865zm-.504-1.51h-1.104l.55-1.623h.01l.544 1.622zm-6.658 1.51h2.688v-.665h-1.944v-3.387h-.744v4.052z" fill="#7F8184"/><path d="M17.564 14.292H0v6.944h14.935l2.63-6.944z" fill="#AAB72B"/><path d="M28.176 21.438c1.603 8.567 9.018 15.047 17.93 15.047 8.913 0 16.328-6.48 17.93-15.047h-7.044c-1.454 4.695-5.777 8.102-10.886 8.102-5.108 0-9.43-3.407-10.885-8.102h-7.044z" fill="#303338"/><path d="M64.037 15.047C62.434 6.48 55.02 0 46.107 0c-8.913 0-16.328 6.48-17.93 15.047h7.044c1.454-4.696 5.777-8.102 10.886-8.102 5.11 0 9.432 3.406 10.886 8.102h7.045z" fill="#AAB72B"/><path d="M70.44 1.02v20.835c0 8.31 6.64 15.048 14.833 15.048 8.192 0 14.833-6.737 14.833-15.048V9.085L93.26 7.222v14.632c0 4.475-3.576 8.102-7.987 8.102-4.412 0-7.987-3.627-7.987-8.102V2.882l-6.846-1.86z" fill="#303338"/><path d="M121.655 9.046L118.232 0l-13.578 35.88h6.847l2.628-6.943h15.053l-2.626-6.945h-9.797l4.898-12.946z" fill="#303338"/><path d="M46.29 43.696V36.75l18.255 4.963v6.945L46.29 43.696z" fill="#303338"/><path d="M159.54 28.527h-14.833V4.923l-6.845-1.86v32.41h21.678v-6.946z" fill="#303338"/><path d="M20.19 7.967l2.63-6.946H0v6.947h20.19z" fill="#303338"/><path d="M0 35.528h22.82v-6.945H0v6.945z" fill="#303338"/></g></g></svg>