<svg width="120" height="48" viewBox="0 0 120 48" xmlns="http://www.w3.org/2000/svg"><title>logo_footer</title><desc>Created with Sketch.</desc><g fill="none" fill-rule="evenodd"><path d="M119.043 45.886v.806c-.34.306-.752.455-1.232.455-.55 0-1.005-.188-1.37-.556-.355-.374-.533-.844-.533-1.41 0-.57.178-1.047.526-1.423.356-.377.806-.564 1.34-.564.628 0 1.13.266 1.502.807l.604-.628c-.51-.69-1.216-1.033-2.12-1.033-.807 0-1.474.264-2.008.79-.525.523-.788 1.212-.788 2.05 0 .822.263 1.496.797 2.03.534.523 1.177.79 1.943.79.922 0 1.75-.408 2.253-1.034V45.04h-2.16v.846h1.248zm-7.433 2.027h.93v-5.488h-.93v3.883l-2.694-3.883h-.92v5.488h.92v-3.867l2.695 3.867zm-7.306 0h.92v-5.488h-.92v5.488zm-4.14 0l1.85-5.488h-.953l-1.4 4.362-1.424-4.362h-.952l1.865 5.488h1.014zm-6.077 0h.92v-5.488h-.92v5.488zm-5.867 0h3.49v-.844h-2.57v-4.646h-.92v5.488zm-5.11 0l-1.246-2.027c.704-.274 1.106-.86 1.106-1.668 0-1.128-.79-1.793-2.067-1.793h-2.067v5.488h.92v-1.87h1.124l1.138 1.87h1.092zm-2.323-2.724h-1.03v-1.92h1.03c.844 0 1.262.32 1.262.955 0 .642-.42.963-1.264.963zm-8.453 2.723h3.816v-.844h-2.895v-1.53h2.764v-.853h-2.766V43.27h2.895v-.845h-3.817v5.488zm-3.987-4.643h1.657v-.845h-4.187v.845h1.61v4.643h.92V43.27zm-6.16 0h1.656v-.845h-4.188v.845h1.61v4.643h.92V43.27zm-8.593 4.643h3.816v-.844h-2.895v-1.53h2.764v-.853h-2.766V43.27h2.895v-.845h-3.817v5.488zm-3.297-2.857c.41-.297.61-.69.61-1.175 0-.484-.17-.844-.502-1.086-.332-.243-.79-.368-1.362-.368h-2.26v5.488h2.39c1.14 0 1.867-.594 1.867-1.557 0-.557-.248-.995-.743-1.3zm-.325-1.09c0 .48-.37.722-1.115.722h-1.154V43.27h1.107c.736 0 1.162.165 1.162.697zm.14 2.304c0 .533-.403.8-1.2.8H47.7v-1.53h1.24c.782 0 1.17.244 1.17.73zm-8.342 1.643l-1.244-2.027c.704-.274 1.106-.86 1.106-1.668 0-1.128-.79-1.793-2.067-1.793H37.5v5.488h.92v-1.87h1.122l1.14 1.87h1.09zm-2.32-2.724h-1.03v-1.92h1.03c.843 0 1.262.32 1.262.955 0 .642-.42.963-1.263.963zm-5.17 1.996c.533-.54.796-1.214.796-2.02 0-.8-.263-1.473-.797-2.014-.536-.54-1.186-.813-1.97-.813-.78 0-1.43.272-1.96.81-.516.54-.78 1.216-.78 2.014 0 .807.264 1.48.78 2.02.53.54 1.18.815 1.96.815.784 0 1.434-.275 1.968-.815zm-.132-2.02c0 .564-.17 1.034-.51 1.417-.342.376-.776.564-1.295.564-.534 0-.968-.188-1.316-.564-.34-.376-.51-.846-.51-1.418 0-.556.17-1.025.51-1.402.348-.375.782-.564 1.316-.564.52 0 .953.187 1.294.562.34.377.51.846.51 1.402zM24.91 43.27h2.634v-.845H23.99v5.488h.92V45.54h2.456v-.852H24.91V43.27zm-7.71 4.643l1.41-5.488h-.992l-.92 4.01-1-4.01h-1.06l-.99 4.01-.946-4.01h-.983l1.415 5.488h1.014l1.013-3.97 1.014 3.97H17.2zm-7.586 0h.967l-2.11-5.488h-.93l-2.12 5.488h.976l.45-1.166H9.16l.456 1.166zm-.79-2.027H7.176l.82-2.192.828 2.192zM0 47.913h3.49v-.844H.92v-4.646H0v5.488z" fill="#fff"/><path d="M48.595 11.515C47.392 5.1 41.823.25 35.13.25c-6.692 0-12.26 4.85-13.465 11.265h5.29C28.048 8 31.295 5.45 35.13 5.45c3.836 0 7.083 2.55 8.175 6.065h5.29zM11.216 16.715l1.974-5.2H0v5.2h11.216z" fill="#A9B72C"/><path d="M0 11.515v5.2h11.216l1.974-5.2H0" fill="#fff"/><path d="M21.665 16.715C22.87 23.13 28.438 27.98 35.13 27.98c6.693 0 12.262-4.85 13.465-11.265h-5.29c-1.092 3.516-4.34 6.066-8.175 6.066-3.836 0-7.083-2.55-8.174-6.064h-5.29" fill="#303338"/><path d="M48.595 11.515C47.392 5.1 41.822.25 35.13.25S22.87 5.1 21.665 11.514h5.29C28.047 8 31.293 5.45 35.13 5.45c3.836 0 7.082 2.55 8.175 6.065h5.29" fill="#fff"/><path d="M53.123 1.115v15.6c0 6.222 4.987 11.266 11.14 11.266 6.15 0 11.138-5.042 11.138-11.264V7.153L70.26 5.76v10.955c0 3.35-2.686 6.066-5.998 6.066-3.313 0-5.998-2.714-5.998-6.064V2.51l-5.14-1.395M89.024.25L78.828 27.113h5.14l1.975-5.2h11.303l-1.973-5.2h-7.357l3.678-9.693-2.57-6.77M35.13 33.18v-5.2l13.71 3.717v5.2L35.13 33.18M103.675 27.115h16.28v-5.2h-11.14V4.242l-5.14-1.393v24.264M0 1.115v5.2h15.164l1.973-5.2H0" fill="#303338"/><path d="M0 21.915h17.137v5.2H0v-5.2z" fill="#303338"/></g></svg>